<?xml version="1.0" standalone="no"?>
<!DOCTYPE svg PUBLIC "-//W3C//DTD SVG 20010904//EN"
 "http://www.w3.org/TR/2001/REC-SVG-20010904/DTD/svg10.dtd">
<svg version="1.0" xmlns="http://www.w3.org/2000/svg"
 width="1613.000000pt" height="549.000000pt" viewBox="0 0 1613.000000 549.000000"
 preserveAspectRatio="xMidYMid meet">

<g transform="translate(0.000000,549.000000) scale(0.100000,-0.100000)"
fill="#000000" stroke="none">
<path d="M3921 4938 c-69 -36 -104 -86 -109 -157 -5 -72 9 -119 48 -157 l29
-29 1 -266 c0 -256 -1 -266 -21 -288 -28 -30 -60 -41 -120 -41 l-49 0 0 153
c0 168 -9 201 -63 241 -27 20 -42 21 -369 23 l-341 3 -23 34 c-64 94 -207 113
-295 39 -99 -84 -92 -251 13 -321 79 -51 203 -39 262 27 19 20 27 21 283 21
l265 0 29 -29 c27 -28 29 -34 29 -110 l0 -81 -145 0 c-158 0 -185 -7 -224 -56
-19 -24 -21 -40 -21 -150 l0 -124 -350 0 -350 0 0 216 0 217 34 38 c51 56 67
124 45 190 -42 123 -179 179 -289 119 -96 -54 -133 -174 -84 -271 14 -28 79
-89 94 -89 6 0 10 -82 10 -210 l0 -210 -84 0 -85 0 -3 159 c-3 143 -5 163 -24
188 -45 61 -56 63 -420 63 l-331 0 -26 39 c-56 84 -189 107 -274 48 -90 -62
-115 -180 -58 -272 68 -110 223 -129 312 -38 l28 28 235 3 c255 4 296 -2 329
-45 17 -21 21 -40 21 -99 l0 -73 -232 -3 c-260 -3 -288 -9 -357 -79 -74 -75
-71 -35 -71 -789 l0 -675 24 -50 c28 -60 66 -97 126 -124 45 -20 55 -21 2023
-21 2150 0 2004 -4 2080 54 19 14 47 50 63 78 l29 53 3 659 c3 758 5 734 -77
816 -72 72 -108 80 -368 80 l-213 0 0 55 c0 65 19 116 51 139 20 14 59 16 285
16 217 0 263 -2 267 -14 3 -8 27 -27 54 -43 136 -79 303 15 303 172 0 156
-167 251 -302 172 -25 -15 -56 -42 -68 -62 l-21 -34 -349 -3 -350 -3 -32 -33
-33 -32 -3 -165 -3 -165 -85 0 -84 0 0 215 0 214 29 33 c44 51 61 92 61 147 0
61 -13 97 -48 134 -89 94 -238 87 -311 -13 -68 -94 -46 -227 46 -285 l32 -20
1 -212 0 -213 -300 0 -300 0 0 65 0 65 146 0 c160 0 186 7 218 60 14 24 16 70
16 352 0 177 3 332 6 343 3 11 18 28 34 37 16 9 41 35 57 59 36 55 39 142 7
204 -48 93 -171 131 -263 83z m155 -24 c70 -33 113 -117 99 -190 -6 -35 -44
-81 -109 -132 -14 -11 -16 -50 -16 -358 l0 -346 -29 -29 -29 -29 -161 0 -161
0 0 -80 0 -80 -75 0 -75 0 0 85 0 85 -73 0 c-51 0 -82 -5 -106 -18 -40 -22
-71 -73 -71 -119 l0 -33 -70 0 -70 0 0 118 c1 175 9 182 234 182 l156 0 0 95
c0 110 -13 145 -63 172 -28 16 -66 18 -295 21 l-263 3 -44 -40 c-50 -46 -78
-56 -142 -48 -160 18 -198 238 -54 314 24 13 58 23 75 23 50 0 117 -40 149
-87 l28 -43 345 0 c218 0 352 -4 365 -10 41 -23 49 -60 49 -235 l0 -165 73 0
c80 0 129 18 158 60 16 22 19 56 22 302 l4 277 -27 20 c-36 26 -60 80 -60 133
1 118 130 202 236 152z m384 -484 c53 -27 83 -72 88 -135 5 -60 -21 -121 -62
-149 l-26 -16 0 -230 0 -230 -65 0 -66 0 1 222 c1 176 -1 223 -12 227 -7 2
-32 23 -55 45 -66 67 -71 154 -10 223 56 64 134 80 207 43z m-2091 -11 c46
-28 68 -56 80 -104 17 -66 -2 -124 -57 -171 l-25 -22 2 -226 2 -226 -65 0 -66
0 0 215 0 215 -38 24 c-116 73 -114 226 2 297 43 26 121 25 165 -2z m-1195
-283 c20 -15 43 -40 51 -57 l16 -29 337 0 c301 0 341 -2 372 -18 49 -24 59
-61 59 -224 l1 -138 -75 0 -75 0 0 78 c0 91 -18 129 -73 155 -30 15 -73 17
-292 17 l-257 0 -45 -40 c-69 -61 -151 -66 -219 -15 -102 78 -87 230 28 289
49 25 127 17 172 -18z m4528 8 c15 -8 40 -31 55 -51 24 -31 28 -46 28 -98 0
-52 -4 -67 -28 -98 -36 -48 -81 -71 -138 -70 -53 1 -99 22 -128 58 l-20 26
-272 -1 c-239 0 -277 -3 -302 -18 -46 -26 -67 -76 -67 -154 l0 -68 -70 0 -70
0 0 145 c0 90 4 154 12 170 24 53 38 55 407 55 l341 0 25 40 c51 81 141 107
227 64z m-2212 -404 l0 -70 -96 0 -97 0 6 41 c9 70 47 97 135 98 l52 1 0 -70z
m-1908 -582 l3 -181 154 181 153 182 145 0 145 0 -54 -64 c-29 -35 -108 -129
-175 -209 -68 -80 -123 -150 -123 -155 0 -6 81 -144 181 -308 100 -164 183
-304 186 -311 4 -11 -18 -13 -122 -11 l-127 3 -130 210 c-71 116 -133 217
-138 225 -8 12 -18 5 -52 -34 l-43 -50 -5 -175 -5 -176 -107 -3 -108 -3 0 531
0 530 110 0 110 0 2 -182z m855 47 c3 -109 7 -105 -118 -105 l-109 0 0 85 0
86 113 -3 112 -3 2 -60z m2833 -20 l0 -85 -110 0 -110 0 0 85 0 85 110 0 110
0 0 -85z m-1308 -162 c66 -30 133 -96 165 -162 l28 -56 3 -262 3 -263 -76 0
c-75 0 -76 0 -95 33 l-20 34 -49 -23 c-97 -47 -286 -55 -394 -18 -65 22 -149
101 -184 172 -24 49 -28 72 -31 163 -6 165 36 273 133 342 85 60 121 67 305
64 144 -2 171 -5 212 -24z m-1524 -360 l-3 -378 -110 0 -110 0 -3 378 -2 377
115 0 115 0 -2 -377z m842 278 l0 -99 -196 -163 -197 -164 194 -5 194 -5 0
-110 0 -110 -385 0 -385 0 -3 95 -2 95 203 170 204 170 -203 3 -204 2 0 110 0
110 390 0 390 0 0 -99z m1710 -1 l0 -100 -195 -162 -195 -163 192 -5 193 -5 0
-110 0 -110 -385 0 -385 0 -2 95 -2 95 204 170 204 170 -205 3 -204 2 0 110 0
110 390 0 390 0 0 -100z m280 -280 l0 -381 -107 3 -108 3 -3 378 -2 377 110 0
110 0 0 -380z"/>
<path d="M3967 4809 c-32 -25 -35 -61 -7 -89 39 -39 100 -12 100 44 0 55 -50
79 -93 45z m61 -45 c4 -27 -26 -40 -46 -20 -21 20 -8 48 20 44 14 -2 24 -11
26 -24z"/>
<path d="M2710 4387 c-35 -18 -46 -41 -34 -74 22 -64 114 -48 114 21 0 48 -39
74 -80 53z m48 -53 c4 -27 -26 -40 -46 -20 -21 20 -8 48 20 44 14 -2 24 -11
26 -24z"/>
<path d="M4350 4332 c-14 -11 -22 -29 -22 -47 0 -29 31 -65 57 -65 23 0 65 41
65 63 0 28 -9 41 -37 56 -29 15 -37 14 -63 -7z m70 -47 c0 -17 -30 -34 -47
-28 -7 3 -13 15 -13 28 0 13 6 25 13 28 17 6 47 -11 47 -28z"/>
<path d="M2247 4322 c-37 -40 -9 -102 46 -102 33 0 57 24 57 59 0 54 -68 82
-103 43z m61 -21 c21 -13 10 -46 -16 -49 -27 -4 -40 22 -22 43 14 17 20 18 38
6z"/>
<path d="M1030 4040 c-11 -11 -20 -31 -20 -45 0 -30 32 -65 60 -65 28 0 60 35
60 65 0 30 -32 65 -60 65 -11 0 -29 -9 -40 -20z m70 -44 c0 -8 -7 -19 -15 -26
-28 -23 -60 21 -33 48 14 14 48 -2 48 -22z"/>
<path d="M5580 4030 c-11 -11 -20 -29 -20 -40 0 -28 35 -60 65 -60 30 0 65 32
65 60 0 28 -35 60 -65 60 -14 0 -34 -9 -45 -20z m68 -22 c14 -14 -2 -48 -23
-48 -21 0 -37 34 -23 48 7 7 17 12 23 12 6 0 16 -5 23 -12z"/>
<path d="M3592 2815 c-43 -19 -62 -65 -62 -150 0 -71 16 -114 52 -139 29 -21
194 -22 242 -2 120 50 157 239 56 291 -39 20 -241 20 -288 0z"/>
<path d="M5900 3245 l0 -95 165 0 165 0 0 -430 0 -430 105 0 105 0 0 430 0
430 165 0 165 0 0 95 0 95 -435 0 -435 0 0 -95z"/>
<path d="M8340 2815 l0 -525 104 0 105 0 3 219 c3 204 5 222 24 248 37 50 77
63 199 63 132 0 167 -15 184 -77 6 -21 11 -131 11 -245 l0 -208 105 0 105 0 0
240 c0 220 -2 244 -21 296 -37 97 -120 173 -222 200 -86 23 -298 16 -369 -11
-17 -7 -18 5 -18 159 l0 166 -105 0 -105 0 0 -525z"/>
<path d="M11060 2815 l0 -525 110 0 110 0 0 525 0 525 -110 0 -110 0 0 -525z"/>
<path d="M13142 3188 l3 -83 108 -3 107 -3 0 86 0 85 -110 0 -111 0 3 -82z"/>
<path d="M6837 3040 c-97 -25 -182 -95 -225 -189 -24 -50 -27 -68 -27 -176 0
-91 4 -133 18 -172 23 -66 94 -146 161 -181 49 -26 59 -27 226 -30 159 -3 180
-2 232 18 103 38 185 136 204 243 l6 37 -108 0 -109 0 -12 -27 c-21 -47 -48
-57 -172 -61 -138 -5 -184 6 -211 51 -11 18 -20 47 -20 65 l0 32 316 0 316 0
-7 78 c-12 139 -70 228 -183 284 -65 32 -69 33 -217 35 -82 1 -167 -2 -188 -7z
m335 -240 l33 -29 -199 -1 -199 0 19 21 c30 33 51 38 186 38 l128 1 32 -30z"/>
<path d="M7709 3037 c-103 -29 -172 -88 -218 -187 -23 -49 -26 -67 -26 -175 0
-91 4 -133 18 -172 23 -66 94 -146 161 -181 50 -26 55 -27 226 -27 171 0 176
1 226 27 95 50 158 140 178 256 l6 32 -108 0 -107 0 -17 -40 c-23 -55 -62 -70
-178 -70 -162 0 -194 31 -188 182 3 87 4 91 36 119 32 29 34 29 151 29 113 0
121 -1 149 -25 17 -14 33 -39 37 -55 l7 -30 109 0 109 0 -6 43 c-16 109 -82
200 -181 249 -65 31 -72 33 -202 35 -88 2 -152 -2 -182 -10z"/>
<path d="M10399 3036 c-93 -25 -168 -86 -212 -172 -41 -79 -46 -265 -11 -366
21 -62 93 -142 158 -176 50 -27 54 -27 241 -27 178 0 193 1 237 23 65 32 125
94 156 160 37 81 44 240 13 339 -33 110 -108 184 -221 217 -65 19 -292 21
-361 2z m347 -240 c34 -34 34 -34 34 -128 0 -146 -27 -168 -205 -168 -179 0
-209 27 -203 182 3 87 4 91 36 119 l32 29 136 0 136 0 34 -34z"/>
<path d="M11583 3035 c-83 -23 -151 -73 -195 -146 -57 -92 -65 -305 -16 -411
31 -66 90 -127 156 -159 44 -23 58 -24 237 -24 187 0 191 0 241 27 67 35 138
115 161 181 14 39 18 81 18 172 -1 103 -4 127 -23 169 -36 80 -85 131 -160
168 -65 32 -69 33 -217 35 -107 2 -165 -1 -202 -12z m349 -234 c32 -28 33 -32
36 -119 6 -155 -24 -182 -203 -182 -178 0 -205 22 -205 168 0 94 0 94 34 128
l34 34 136 0 136 0 32 -29z"/>
<path d="M12474 3039 c-105 -25 -206 -120 -239 -226 -24 -77 -18 -249 12 -315
30 -66 95 -133 162 -165 53 -27 63 -28 196 -28 119 0 148 4 193 22 l52 21 0
-45 c0 -53 -21 -103 -52 -123 -30 -18 -190 -26 -245 -11 -27 7 -51 23 -64 40
l-21 28 -96 -30 c-53 -17 -99 -32 -101 -34 -2 -1 4 -21 15 -44 24 -54 90 -120
151 -150 45 -23 59 -24 223 -24 175 0 175 0 228 29 60 34 111 85 144 148 23
42 23 49 23 363 l0 320 -27 50 c-32 62 -103 129 -166 157 -40 18 -69 22 -197
24 -82 2 -168 -1 -191 -7z m317 -225 c30 -15 59 -65 59 -101 0 -37 -22 -93
-47 -123 -44 -53 -91 -70 -193 -70 -146 0 -170 23 -170 161 0 79 1 82 34 115
l34 34 126 0 c96 0 134 -4 157 -16z"/>
<path d="M13677 3040 c-121 -31 -207 -113 -242 -234 -26 -89 -18 -252 17 -326
30 -66 91 -130 156 -161 43 -22 63 -24 222 -27 159 -3 180 -2 232 18 104 39
187 138 201 243 l6 37 -107 0 -107 0 -17 -30 c-26 -46 -71 -60 -193 -60 -153
0 -205 28 -205 112 l0 38 311 0 311 0 -4 88 c-7 133 -60 217 -176 274 -66 32
-69 33 -217 35 -82 1 -167 -2 -188 -7z m340 -242 l28 -28 -200 0 -200 1 33 30
34 30 139 -3 c136 -3 139 -4 166 -30z"/>
<path d="M14495 3041 c-72 -18 -142 -77 -169 -143 -22 -51 -20 -153 3 -204 10
-22 36 -57 56 -77 60 -58 106 -67 342 -67 l204 0 -3 -27 -3 -28 -191 -3 c-161
-2 -193 0 -204 13 -10 12 -36 15 -116 15 -100 0 -104 -1 -104 -21 0 -78 61
-164 140 -198 49 -21 63 -22 294 -19 l243 3 49 30 c124 77 152 254 57 365 -68
79 -88 84 -340 88 -196 3 -222 6 -225 20 -11 40 -3 42 197 42 119 0 196 -4
200 -10 7 -12 225 -14 225 -2 0 5 -7 32 -16 61 -10 37 -29 66 -59 96 -66 66
-108 75 -349 74 -111 -1 -214 -4 -231 -8z"/>
<path d="M9260 2665 l0 -375 110 0 110 0 0 216 c0 200 2 219 20 249 33 53 71
65 204 65 114 0 116 -1 148 -29 l33 -29 3 -236 3 -236 105 0 104 0 0 245 c0
222 -2 249 -21 299 -26 71 -92 139 -167 174 -50 23 -73 27 -182 30 -88 3 -144
-1 -190 -11 -55 -13 -67 -13 -84 -1 -14 9 -49 14 -108 14 l-88 0 0 -375z"/>
<path d="M13140 2665 l0 -375 110 0 110 0 0 375 0 375 -110 0 -110 0 0 -375z"/>
<path d="M6784 1656 c-35 -16 -51 -55 -34 -86 6 -11 12 -20 13 -20 1 0 27 -9
57 -19 50 -16 55 -21 55 -47 0 -26 -3 -29 -38 -32 -23 -2 -48 3 -62 12 -22 14
-35 12 -35 -6 0 -12 64 -38 92 -38 37 0 71 23 79 52 10 39 -19 73 -74 87 -59
14 -76 35 -52 61 20 22 46 25 76 9 12 -6 28 -8 37 -4 13 5 13 7 -4 19 -31 22
-76 27 -110 12z"/>
<path d="M14704 1656 c-35 -16 -51 -55 -34 -86 6 -11 12 -20 13 -20 1 0 27 -9
57 -19 50 -16 55 -21 55 -47 0 -26 -3 -29 -38 -32 -23 -2 -48 3 -62 12 -22 14
-35 12 -35 -6 0 -17 73 -40 108 -34 46 7 62 23 62 61 0 39 -21 59 -76 74 -57
15 -72 35 -49 61 20 22 46 25 76 9 12 -6 28 -8 37 -4 13 5 13 7 -4 19 -31 22
-76 27 -110 12z"/>
<path d="M1710 1541 c0 -102 2 -121 15 -121 13 0 15 17 13 117 -2 82 -7 118
-15 121 -10 3 -13 -25 -13 -117z"/>
<path d="M2080 1540 c0 -100 3 -120 15 -120 12 0 15 17 15 91 l0 91 68 -88
c96 -126 102 -125 102 25 0 100 -3 121 -15 121 -11 0 -15 -19 -17 -92 l-3 -92
-70 92 c-38 50 -76 92 -82 92 -10 0 -13 -31 -13 -120z"/>
<path d="M2630 1540 c0 -100 3 -120 15 -120 12 0 15 17 15 92 l0 92 68 -92
c93 -127 102 -125 102 28 0 99 -3 120 -15 120 -11 0 -15 -19 -17 -92 l-3 -93
-70 93 c-38 50 -75 92 -82 92 -10 0 -13 -30 -13 -120z"/>
<path d="M3255 1653 c-39 -10 -75 -44 -86 -84 -10 -33 -10 -45 4 -74 32 -68
112 -93 174 -55 38 23 55 51 56 96 1 48 -20 81 -68 104 -43 21 -46 21 -80 13z
m84 -49 c86 -72 -16 -202 -107 -138 -70 49 -32 162 55 164 12 0 35 -12 52 -26z"/>
<path d="M3720 1657 c0 -3 22 -56 48 -119 66 -153 73 -153 135 -6 52 124 53
128 33 128 -7 0 -29 -39 -50 -90 -21 -49 -41 -92 -46 -95 -4 -3 -26 37 -47 88
-24 56 -47 93 -57 95 -9 2 -16 1 -16 -1z"/>
<path d="M4317 1623 c-8 -21 -31 -75 -51 -120 -33 -77 -34 -83 -16 -83 13 0
22 9 26 25 6 24 10 25 74 25 64 0 68 -1 74 -25 4 -16 13 -25 26 -25 18 0 17 6
-16 83 -20 45 -43 99 -51 120 -10 23 -22 37 -33 37 -11 0 -23 -14 -33 -37z
m59 -66 l22 -52 -45 -3 c-25 -2 -47 -1 -49 1 -5 5 39 106 46 107 3 0 15 -24
26 -53z"/>
<path d="M4760 1645 c0 -10 11 -15 35 -15 l34 0 3 -102 c2 -79 6 -103 17 -103
10 0 13 23 15 100 l1 100 38 3 c24 2 37 8 37 18 0 11 -18 14 -90 14 -73 0 -90
-3 -90 -15z"/>
<path d="M5270 1540 c0 -100 3 -120 15 -120 13 0 15 20 15 120 0 100 -2 120
-15 120 -12 0 -15 -20 -15 -120z"/>
<path d="M5710 1649 c-117 -47 -106 -202 16 -225 67 -12 144 49 144 116 0 30
-32 85 -57 98 -31 17 -77 21 -103 11z m79 -34 c16 -8 34 -27 40 -43 36 -87
-73 -162 -143 -97 -34 32 -36 92 -3 122 38 35 65 40 106 18z"/>
<path d="M6200 1541 c0 -100 3 -121 15 -121 11 0 15 19 17 92 l3 92 69 -92
c92 -125 101 -122 101 27 0 83 -3 115 -12 118 -10 4 -13 -18 -13 -86 0 -50 -3
-91 -7 -91 -5 1 -38 40 -74 88 -93 124 -99 122 -99 -27z"/>
<path d="M7620 1540 c0 -100 3 -120 15 -120 12 0 15 13 15 55 l0 55 65 0 c51
0 65 3 65 15 0 12 -14 15 -65 15 l-65 0 0 35 0 35 70 0 c56 0 70 3 70 15 0 12
-16 15 -85 15 l-85 0 0 -120z"/>
<path d="M8193 1649 c-99 -28 -112 -169 -19 -213 42 -20 69 -20 104 -2 63 33
87 97 58 154 -28 53 -84 77 -143 61z m70 -30 c62 -32 74 -94 28 -140 -39 -38
-88 -40 -125 -3 -68 69 12 186 97 143z"/>
<path d="M8680 1541 c0 -101 2 -121 15 -121 11 0 15 11 15 40 0 38 2 40 29 40
23 0 36 -9 58 -40 15 -22 36 -40 47 -40 16 0 16 4 -8 34 -32 42 -32 43 -1 68
19 15 25 29 25 58 0 52 -28 71 -115 78 l-65 5 0 -122z m134 73 c22 -21 20 -61
-3 -74 -11 -5 -38 -10 -60 -10 l-41 0 0 50 0 50 44 0 c27 0 51 -6 60 -16z"/>
<path d="M9643 1649 c-99 -28 -112 -169 -19 -213 42 -20 67 -20 111 -2 33 14
35 17 35 65 l0 51 -45 0 c-33 0 -45 -4 -45 -15 0 -10 10 -15 30 -15 26 0 30
-3 30 -29 0 -51 -74 -58 -121 -12 -71 71 8 180 102 140 20 -8 33 -9 40 -2 7 7
1 14 -18 21 -48 18 -67 20 -100 11z"/>
<path d="M10110 1540 l0 -120 85 0 c69 0 85 3 85 15 0 12 -14 15 -70 15 l-70
0 0 40 0 40 60 0 c47 0 60 3 60 15 0 12 -13 15 -60 15 l-60 0 0 35 0 35 70 0
c56 0 70 3 70 15 0 12 -16 15 -85 15 l-85 0 0 -120z"/>
<path d="M10610 1540 c0 -99 3 -120 15 -120 11 0 15 19 17 92 l3 92 69 -92
c37 -51 74 -92 82 -92 11 0 14 24 14 121 0 92 -3 120 -12 116 -9 -2 -13 -30
-13 -90 0 -48 -2 -87 -5 -87 -3 0 -36 41 -73 90 -37 50 -74 90 -82 90 -12 0
-15 -20 -15 -120z"/>
<path d="M11160 1540 l0 -120 85 0 c69 0 85 3 85 15 0 12 -14 15 -70 15 l-70
0 0 40 0 40 60 0 c48 0 60 3 60 16 0 13 -10 15 -60 12 l-60 -3 0 38 0 37 70 0
c56 0 70 3 70 15 0 12 -16 15 -85 15 l-85 0 0 -120z"/>
<path d="M11660 1540 c0 -100 3 -120 15 -120 11 0 15 11 15 40 0 37 2 40 29
40 22 0 35 -9 56 -40 16 -23 36 -40 47 -40 18 0 16 4 -11 39 l-31 39 25 16
c28 19 40 54 31 92 -8 32 -58 54 -126 54 l-50 0 0 -120z m128 74 c48 -33 16
-84 -54 -84 l-44 0 0 50 0 50 38 0 c21 0 48 -7 60 -16z"/>
<path d="M12237 1623 c-9 -21 -32 -75 -51 -120 -33 -77 -34 -83 -16 -83 13 0
22 9 26 25 6 23 10 25 70 25 59 0 65 -2 76 -25 6 -14 19 -25 29 -25 17 0 17 5
-7 58 -14 31 -37 85 -51 120 -30 74 -53 82 -76 25z m59 -66 l22 -52 -45 -3
c-25 -2 -47 -1 -49 1 -5 5 38 107 45 107 4 0 16 -24 27 -53z"/>
<path d="M12680 1645 c0 -10 11 -15 35 -15 l35 0 0 -105 c0 -86 3 -105 15
-105 11 0 15 20 17 103 l3 102 38 3 c24 2 37 8 37 18 0 11 -18 14 -90 14 -73
0 -90 -3 -90 -15z"/>
<path d="M13190 1540 c0 -100 3 -120 15 -120 13 0 15 20 15 120 0 100 -2 120
-15 120 -12 0 -15 -20 -15 -120z"/>
<path d="M13618 1644 c-27 -11 -43 -28 -58 -58 -18 -38 -19 -47 -8 -81 35
-104 177 -111 225 -10 44 93 -60 190 -159 149z m91 -29 c83 -42 49 -165 -46
-165 -80 0 -114 102 -52 154 35 30 58 32 98 11z"/>
<path d="M14120 1540 c0 -99 3 -120 15 -120 11 0 15 19 17 92 l3 92 69 -92
c45 -61 74 -92 85 -90 9 2 15 11 15 21 -1 9 -2 62 -3 118 -1 76 -4 100 -13 96
-9 -3 -13 -30 -12 -90 0 -48 -2 -87 -5 -87 -3 0 -37 41 -74 90 -37 50 -75 90
-83 90 -11 0 -14 -22 -14 -120z"/>
</g>
</svg>
